<mxfile host="app.diagrams.net" modified="2023-06-16T06:39:40.571Z" agent="Mozilla/5.0 (Windows NT 10.0; Win64; x64) AppleWebKit/537.36 (KHTML, like Gecko) Chrome/113.0.0.0 Safari/537.36" version="21.4.0" etag="O_QiVTpssyvcOJJMYzrl" type="github">
  <diagram name="第 1 页" id="QE_fxWkQeBKnXSg5h-dE">
    <mxGraphModel>
      <root>
        <mxCell id="0" />
        <mxCell id="1" parent="0" />
      </root>
    </mxGraphModel>
  </diagram>
</mxfile>
